<svg width="35" height="20" viewBox="0 0 35 20" fill="none" xmlns="http://www.w3.org/2000/svg">
<path d="M0 2.65653C0 1.57107 0.899209 1.14259 2.00593 1.08546L7.15909 1.11403C7.47036 1.11403 7.74704 1.28542 7.85079 1.5425C9.02668 4.68463 10.4792 6.62704 12.2085 8.82653C12.3123 8.99792 12.4852 9.08362 12.6581 9.08362C12.7964 9.08362 12.9348 9.02649 13.0385 8.88366L13.1423 8.56945L13.1769 3.62773C13.1769 2.91361 12.7619 2.79935 11.7935 2.68509C11.413 2.62796 11.1709 2.34232 11.1709 2.05667C11.1709 1.99954 11.1709 1.94241 11.2055 1.88528C11.6897 0.656991 13.2115 0.0285648 15.3557 0.0285648L17.2925 0C18.8834 0 20.336 0.571297 20.336 2.25662V8.74084C20.4743 8.82653 20.6126 8.88366 20.7856 8.88366C21.0623 8.88366 21.4081 8.74084 21.6848 8.3695C23.4832 6.28426 25.5237 3.79912 25.8004 2.48514C25.8004 2.42801 25.835 2.39945 25.8696 2.34232C26.25 1.71389 27.2184 1.28542 27.6334 1.17116C27.7026 1.14259 27.8063 1.11403 27.9447 1.11403H33.3053L33.6512 1.14259C34.17 1.14259 34.5504 1.42824 34.7233 1.68533C35.0346 2.08523 34.9654 2.51371 35 2.68509V2.88505C34.4812 5.48445 30.8844 8.39806 29.3626 10.2833C29.1551 10.5119 29.0514 10.7118 29.0514 10.9118C29.0514 11.0832 29.1551 11.2545 29.3281 11.4259L34.3775 16.6819C34.6542 16.9961 34.7925 17.3674 34.7925 17.6816C34.7925 18.6243 33.7204 19.167 32.6828 19.2527L32.0949 19.2813H26.8379C26.7342 19.2813 26.665 19.3098 26.5613 19.3098C25.9733 19.3098 25.4891 19.0527 25.1433 18.7671C24.0366 17.6531 22.9644 16.5105 21.8923 15.3964C21.6848 15.1679 21.6156 15.1394 21.4081 15.0251C21.166 15.8535 20.9585 16.7104 20.7164 17.5674L20.6126 18.053C20.4397 18.5671 19.9901 19.1099 19.1601 19.2527L18.6759 19.2813H15.2866C9.30336 19.2813 3.94269 12.2543 0.172925 3.48491C0.06917 3.25639 0 2.94218 0 2.65653ZM20.7856 10.0548C19.8864 10.0548 18.8834 9.62635 18.8834 8.82653V2.25662C18.8834 1.48537 18.4684 1.19972 17.3271 1.19972L15.3557 1.25685C14.249 1.25685 13.6265 1.39968 13.1077 1.68533C13.9032 1.99954 14.6294 2.42801 14.6294 3.62773V8.65514C14.5257 9.65491 13.5227 10.3119 12.5543 10.3119C11.8972 10.3119 11.3093 9.99769 10.9634 9.48352C9.40711 7.54112 8.09289 5.71297 6.95158 3.085L6.64032 2.34232L2.04051 2.31375C1.41798 2.31375 1.48715 2.34232 1.48715 2.5994C1.48715 2.77079 1.52174 2.99931 1.55632 3.14213L2.28261 4.74176C6.05237 12.797 10.7905 18.0815 15.2866 18.0815H18.7451C19.2292 18.0815 19.1947 17.5959 19.2984 17.3103L19.9555 14.7966C20.0939 14.5395 20.1976 14.311 20.4397 14.111C20.7164 13.8825 21.0277 13.7968 21.3389 13.7968C21.996 13.7968 22.6186 14.2253 23.0336 14.6252L25.9733 17.7102C26.2154 18.0244 26.4229 18.0815 26.5613 18.0815H32.2678C32.8211 18.0815 33.3053 17.9387 33.3053 17.6531C33.3053 17.5674 33.2708 17.4531 33.2016 17.3674L28.1868 12.1972C27.7717 11.7687 27.5988 11.3402 27.5988 10.9118C27.5988 10.4547 27.8063 9.99769 28.1522 9.59778C29.6047 7.7982 32.7174 5.22736 33.4437 3.11357L33.5474 2.74222C33.5128 2.5994 33.5128 2.48514 33.4783 2.34232H28.0484C27.7026 2.45658 27.4259 2.62796 27.2184 2.85648L27.0109 3.39922C26.2154 5.22736 24.0366 7.74107 22.4802 9.48352C21.9615 9.88343 21.3735 10.0548 20.7856 10.0548Z" fill="#D9D9D9"/>
</svg>
