<svg width="35" height="24" viewBox="0 0 35 24" fill="none" xmlns="http://www.w3.org/2000/svg">
<path d="M34.2939 0.359497C34.0168 0.183879 33.6796 0.0669991 33.3187 0.0214232C32.9579 -0.0241527 32.5869 0.00329885 32.2456 0.100827L1.26989 9.0311C0.867339 9.1486 0.52714 9.35819 0.299764 9.62875C0.0723873 9.89932 -0.0300525 10.2164 0.0076419 10.5331C0.0453363 10.8498 0.221156 11.1491 0.509019 11.3866C0.796881 11.6242 1.18145 11.7873 1.60567 11.8518L10.017 13.0959V20.7082C10.0119 21.0015 10.1278 21.289 10.3495 21.533C10.5713 21.777 10.8884 21.9661 11.2594 22.0755C11.5104 22.1488 11.7782 22.1864 12.0484 22.1863C12.3107 22.1865 12.5704 22.1485 12.8125 22.0745C13.0546 22.0005 13.2743 21.892 13.4587 21.7552L18.2604 18.2324L25.3454 22.8022C25.7084 23.0433 26.182 23.1753 26.6717 23.1717C26.8828 23.1713 27.0924 23.1464 27.2929 23.0978C27.623 23.0184 27.9198 22.8781 28.1549 22.6905C28.3901 22.5029 28.5557 22.2742 28.636 22.0262L34.9487 1.80066C35.0313 1.5395 35.0139 1.26667 34.8983 1.01232C34.7828 0.75798 34.5736 0.532042 34.2939 0.359497ZM1.33705 10.4476C1.31708 10.3409 1.34793 10.2323 1.4244 10.1403C1.50087 10.0483 1.61826 9.97847 1.75677 9.9426L30.1638 1.76371L10.5374 12.1598L1.8743 10.8911C1.73 10.872 1.59863 10.8179 1.50122 10.7375C1.4038 10.6571 1.34599 10.555 1.33705 10.4476ZM12.5017 21.0531C12.4105 21.1226 12.2929 21.1704 12.1641 21.1902C12.0353 21.21 11.9014 21.2008 11.7798 21.164C11.656 21.1272 11.55 21.0642 11.4752 20.983C11.4004 20.9019 11.3604 20.8062 11.3601 20.7082V13.7734L17.253 17.5795L12.5017 21.0531ZM33.6391 1.59126L27.3265 21.8045C27.3013 21.8883 27.246 21.9656 27.1662 22.0285C27.0865 22.0913 26.9853 22.1373 26.8732 22.1617C26.7648 22.1902 26.6478 22.1961 26.5351 22.1787C26.4225 22.1613 26.3186 22.1213 26.2352 22.0631L11.763 12.7264L33.5384 1.18478C33.5933 1.24349 33.6306 1.31006 33.648 1.38011C33.6654 1.45017 33.6623 1.52212 33.6391 1.59126Z" fill="#D9D9D9"/>
</svg>
